<svg width="50" height="50" viewBox="0 0 50 50" fill="none" xmlns="http://www.w3.org/2000/svg">
<path d="M41.6666 25V39.75C41.6666 41.6356 41.6666 42.5784 41.0809 43.1642C40.4951 43.75 39.5523 43.75 37.6666 43.75H13.5416C11.4746 43.75 10.4411 43.75 9.69391 43.2624C9.34551 43.0351 9.04821 42.7378 8.82087 42.3894C8.33331 41.6422 8.33331 40.6087 8.33331 38.5417V38.5417C8.33331 36.4746 8.33331 35.4411 8.82087 34.6939C9.04821 34.3455 9.34551 34.0482 9.69391 33.8209C10.4411 33.3333 11.4746 33.3333 13.5416 33.3333H37.6666C39.5523 33.3333 40.4951 33.3333 41.0809 32.7475C41.6666 32.1618 41.6666 31.219 41.6666 29.3333V10.25C41.6666 8.36438 41.6666 7.42157 41.0809 6.83579C40.4951 6.25 39.5523 6.25 37.6666 6.25H12.3333C10.4477 6.25 9.50489 6.25 8.9191 6.83579C8.33331 7.42157 8.33331 8.36438 8.33331 10.25V38.5417" stroke="#FEFEFE" stroke-width="2"/>
<path d="M18.75 20.8333L22.2096 24.2929C22.6001 24.6834 23.2332 24.6834 23.6238 24.2929L31.25 16.6666" stroke="#FEFEFE" stroke-width="2" stroke-linecap="round"/>
</svg>
