<svg width="48" height="48" viewBox="0 0 48 48" fill="none" xmlns="http://www.w3.org/2000/svg">
<path d="M14 14.2639V8.61204C14 6.46614 14 5.3932 14.6896 4.79511C15.3792 4.19703 16.4414 4.34877 18.5657 4.65224L36.8485 7.26408C39.3047 7.61495 40.5327 7.79039 41.2664 8.63628C42 9.48217 42 10.7227 42 13.2038V34.7962C42 37.2773 42 38.5178 41.2664 39.3637C40.5327 40.2096 39.3047 40.385 36.8485 40.7359L18.5657 43.3478C16.4414 43.6512 15.3792 43.803 14.6896 43.2049C14 42.6068 14 41.5339 14 39.388V34.1319" stroke="#FEFEFE" stroke-width="2"/>
<path d="M32 24L32.7809 23.3753L33.2806 24L32.7809 24.6247L32 24ZM8 25C7.44772 25 7 24.5523 7 24C7 23.4477 7.44772 23 8 23V25ZM24.7809 13.3753L32.7809 23.3753L31.2191 24.6247L23.2191 14.6247L24.7809 13.3753ZM32.7809 24.6247L24.7809 34.6247L23.2191 33.3753L31.2191 23.3753L32.7809 24.6247ZM32 25H8V23H32V25Z" fill="#FEFEFE"/>
</svg>
